<?xml version="1.0" encoding="UTF-8"?>
<svg viewBox="0 0 11 16" version="1.1" xmlns="http://www.w3.org/2000/svg" xmlns:xlink="http://www.w3.org/1999/xlink">
    <!-- Generator: Sketch 44.1 (41455) - http://www.bohemiancoding.com/sketch -->
    <title>blur</title>
    <desc>Created with Sketch.</desc>
    <defs></defs>
    <g id="Page-1" stroke="none" stroke-width="1">
        <g id="Artboard" transform="translate(-427.000000, -231.000000)">
            <g id="blur" transform="translate(427.000000, 231.000000)">
                <path d="M9.90531401,13.7162048 C8.86987923,15.1673447 7.26770531,15.9996724 5.50956522,16 C5.50951208,16 5.50945894,16 5.5094058,16 L5.50903382,16 L5.5086087,16 C5.50286957,16 5.49707729,16 5.49123188,16 C3.73287923,16 2.13043961,15.1676724 1.09484541,13.7164778 C0.0651497585,12.2735836 -0.241628019,10.4081365 0.274096618,8.72638908 C0.395202899,8.33152218 0.5607343,7.94719454 0.766014493,7.58421843 C0.771700483,7.57417065 0.777599034,7.5643413 0.783657005,7.55456655 C0.985323671,7.23047099 1.18890338,6.9069215 1.39274879,6.58293515 C2.60971014,4.6487372 3.86806763,2.64868259 4.70863768,0.512109215 C4.82852174,0.20734471 5.11414976,0.0057883959 5.43394686,0.000109215017 C5.45637198,-0.000218430034 5.47837198,0.000273037543 5.50031884,0.00174744027 C5.52231884,0.000273037543 5.54437198,-0.000109215017 5.56663768,0.000109215017 C5.88648792,0.0057883959 6.17211594,0.20734471 6.29194686,0.512109215 C7.13288889,2.64977474 8.39188406,4.65075768 9.60937681,6.58588396 C9.8125314,6.90888737 10.0155797,7.23145392 10.2166087,7.55451195 C10.2226667,7.5643413 10.2286184,7.57422526 10.2342512,7.58432765 C10.4392126,7.94681229 10.6046908,8.33108532 10.7259034,8.72644369 C11.241628,10.4079181 10.9349034,12.2733106 9.90531401,13.7162048 Z" id="Shape"></path>
            </g>
        </g>
    </g>
</svg>
