<?xml version='1.0' encoding='iso-8859-1'?>
<svg version="1.1" xmlns="http://www.w3.org/2000/svg" viewBox="0 0 44 44" xmlns:xlink="http://www.w3.org/1999/xlink" enable-background="new 0 0 44 44">
  <path d="m22,0c-12.2,0-22,9.8-22,22s9.8,22 22,22 22-9.8 22-22-9.8-22-22-22zm-1,31c0,0.6-0.4,1-1,1h-10c-0.6,0-1-0.4-1-1v-2c0-0.6 0.4-1 1-1h10c0.6,0 1,0.4 1,1v2zm0-8c0,0.6-0.4,1-1,1h-10c-0.6,0-1-0.4-1-1v-2c0-0.6 0.4-1 1-1h10c0.6,0 1,0.4 1,1v2zm0-8c0,0.6-0.4,1-1,1h-10c-0.6,0-1-0.4-1-1v-2c0-0.6 0.4-1 1-1h10c0.6,0 1,0.4 1,1v2zm13.7,10.7l-8,8c-0.2,0.2-0.4,0.3-0.7,0.3s-0.5-0.1-0.7-0.3-0.3-0.4-0.3-0.7v-22c0-0.5 0.4-1 1-1h2c0.6,0 1,0.5 1,1v13.6c0,0.4 0.5,0.7 0.9,0.4l2-2c0.2-0.2 0.5-0.3 0.7-0.3 0.3,0 0.5,0.1 0.7,0.3l1.4,1.4c0.2,0.2 0.3,0.5 0.3,0.7 0,0.2-0.1,0.4-0.3,0.6z"/>
</svg>
