<svg xmlns="http://www.w3.org/2000/svg" style="position:absolute; width: 0; height: 0;"><symbol viewBox="0 0 392.533 392.533" id="icon-404-ico"><path d="M359.822 21.786H32.711c-6.012 0-10.925 4.848-10.925 10.925v327.111c0 6.012 4.848 10.925 10.925 10.925h327.111c6.012 0 10.925-4.848 10.925-10.925V32.711c0-6.012-4.913-10.925-10.925-10.925z" fill="#fff"></path><path d="M43.636 43.636v58.44h56.242c6.012 0 10.925 4.848 10.925 10.925 0 6.012-4.848 10.925-10.925 10.925H43.636v24.76H68.46c6.012 0 10.925 4.848 10.925 10.925 0 6.012-4.848 10.925-10.925 10.925H43.636V349.09h305.325V43.636H43.636z" fill="#ffc10d"></path><path d="M255.483 177.196c0-33.487-27.216-60.768-60.768-60.768-33.487 0-60.768 27.216-60.768 60.768 0 33.487 27.216 60.768 60.768 60.768 33.552-.13 60.768-27.346 60.768-60.768z" fill="#56ace0"></path><g fill="#194f82"><path d="M194.78 94.642c-45.511 0-82.554 37.042-82.554 82.554s37.042 82.554 82.554 82.554 82.554-37.042 82.554-82.554c-.001-45.511-37.043-82.554-82.554-82.554zm-60.703 82.554c0-33.487 27.216-60.768 60.768-60.768 33.487 0 60.768 27.216 60.768 60.768 0 33.487-27.216 60.768-60.768 60.768-33.487-.13-60.768-27.346-60.768-60.768z"></path><path d="M359.758 0H32.711C14.675 0 0 14.675 0 32.711v327.111c0 18.036 14.675 32.711 32.711 32.711h327.111c18.036 0 32.711-14.675 32.711-32.776V32.711C392.533 14.675 377.859 0 359.758 0zm10.925 359.758c0 6.012-4.849 10.925-10.925 10.925H32.711c-6.012 0-10.925-4.848-10.925-10.925V32.711c0-6.012 4.848-10.925 10.925-10.925h327.111c6.012 0 10.925 4.848 10.925 10.925v327.046h-.064z"></path><path d="M79.515 58.828h-11.96c-6.012 0-10.925 4.848-10.925 10.925s4.848 10.925 10.925 10.925h11.96c6.012 0 10.925-4.848 10.925-10.925s-4.913-10.925-10.925-10.925zM137.18 58.828h-12.024c-6.012 0-10.925 4.848-10.925 10.925s4.848 10.925 10.925 10.925h11.96c6.012 0 10.925-4.848 10.925-10.925s-4.849-10.925-10.861-10.925zM194.715 58.828h-11.96c-6.012 0-10.925 4.848-10.925 10.925s4.848 10.925 10.925 10.925h11.96c6.012 0 10.925-4.848 10.925-10.925s-4.913-10.925-10.925-10.925zM137.438 314.117v-11.442h13.964v11.442h7.434v12.606h-7.434v15.58h-14.093v-15.58h-26.246v-11.119l23.273-38.659h15.903l-22.174 37.172h9.373zM257.034 314.117v-11.442h14.093v11.442h7.434v12.606h-7.434v15.58h-14.093v-15.58h-26.246v-11.119l23.273-38.659h15.903l-22.174 37.172h9.244zM166.659 161.552h5.301c6.012 0 10.925-4.848 10.925-10.925a10.87 10.87 0 0 0-10.925-10.925h-5.301c-6.012 0-10.925 4.848-10.925 10.925.064 6.076 4.912 10.925 10.925 10.925zM217.535 161.552h5.301c6.012 0 10.925-4.848 10.925-10.925a10.87 10.87 0 0 0-10.925-10.925h-5.301c-6.012 0-10.925 4.848-10.925 10.925a10.871 10.871 0 0 0 10.925 10.925zM159.806 211.329c4.267 4.267 11.119 4.267 15.451 0 5.236-5.236 12.218-8.145 19.653-8.145s13.964 3.297 19.523 8.145c7.046 6.012 13.317 2.133 15.451 0 4.267-4.267 4.267-11.119 0-15.451-9.374-9.374-21.786-14.545-34.974-14.545-13.188 0-25.665 5.172-34.974 14.545a10.81 10.81 0 0 0-.13 15.451zM195.168 274.489c-19.071 0-28.121 14.352-28.121 35.168 0 23.467 10.796 35.168 28.121 35.168 19.071 0 28.121-14.352 28.121-35.168 0-23.532-10.731-35.168-28.121-35.168zm0 57.794c-11.895 0-13.188-15.774-13.188-22.626 0-6.853.776-22.626 13.188-22.626 11.895 0 13.188 15.774 13.188 22.626.129 6.852-.647 22.626-13.188 22.626z"></path></g></symbol><symbol viewBox="0 0 11 16" id="icon-blur-ico"><path d="M9.905 13.716C8.87 15.167 7.268 16 5.51 16H5.49c-1.758 0-3.36-.832-4.396-2.284a5.745 5.745 0 0 1-.82-4.99 5.75 5.75 0 0 1 .509-1.171c.201-.325.405-.648.609-.972C2.61 4.649 3.868 2.649 4.709.513A.798.798 0 0 1 5.5.001a.798.798 0 0 1 .792.51c.84 2.138 2.1 4.139 3.317 6.074.204.323.407.645.608.969l.017.03c.205.362.37.746.492 1.141a5.745 5.745 0 0 1-.82 4.99z"></path></symbol><symbol viewBox="0 0 212.982 212.982" id="icon-clear-ico"><path d="M131.804 106.491l75.936-75.936c6.99-6.99 6.99-18.323 0-25.312-6.99-6.99-18.322-6.99-25.312 0L106.491 81.18 30.554 5.242c-6.99-6.99-18.322-6.99-25.312 0-6.989 6.99-6.989 18.323 0 25.312l75.937 75.936-75.937 75.937c-6.989 6.99-6.989 18.323 0 25.312 6.99 6.99 18.322 6.99 25.312 0l75.937-75.937 75.937 75.937c6.989 6.99 18.322 6.99 25.312 0 6.99-6.99 6.99-18.322 0-25.312l-75.936-75.936z" fill-rule="evenodd" clip-rule="evenodd"></path></symbol><symbol viewBox="0 0 10 16" id="icon-fork-ico"><path fill-rule="evenodd" d="M8 1a1.993 1.993 0 0 0-1 3.72V6L5 8 3 6V4.72A1.993 1.993 0 0 0 2 1a1.993 1.993 0 0 0-1 3.72V6.5l3 3v1.78A1.993 1.993 0 0 0 5 15a1.993 1.993 0 0 0 1-3.72V9.5l3-3V4.72A1.993 1.993 0 0 0 8 1zM2 4.2C1.34 4.2.8 3.65.8 3c0-.65.55-1.2 1.2-1.2.65 0 1.2.55 1.2 1.2 0 .65-.55 1.2-1.2 1.2zm3 10c-.66 0-1.2-.55-1.2-1.2 0-.65.55-1.2 1.2-1.2.65 0 1.2.55 1.2 1.2 0 .65-.55 1.2-1.2 1.2zm3-10c-.66 0-1.2-.55-1.2-1.2 0-.65.55-1.2 1.2-1.2.65 0 1.2.55 1.2 1.2 0 .65-.55 1.2-1.2 1.2z"></path></symbol><symbol viewBox="0 0 96 96" id="icon-git-ico"><path d="M48.07 47.746l-.07-.002a1.782 1.782 0 0 1-.071.002c-5.957 0-11.206-1.508-14.308 1.34-1.859 1.709-2.642 3.768-2.642 5.985 0 9.261 7.42 10.398 16.949 10.398h.142c9.529 0 16.949-1.138 16.949-10.398 0-2.218-.783-4.276-2.642-5.985-3.102-2.848-8.35-1.34-14.307-1.34zm-8.102 12.655c-1.813 0-3.283-2.036-3.283-4.547s1.47-4.546 3.283-4.546 3.285 2.035 3.285 4.546-1.472 4.547-3.285 4.547zm16.063 0c-1.814 0-3.285-2.036-3.285-4.547s1.471-4.546 3.285-4.546c1.812 0 3.283 2.035 3.283 4.546s-1.47 4.547-3.283 4.547zM48 0C21.489 0 0 21.49 0 48s21.489 48 48 48c26.509 0 48-21.49 48-48S74.509 0 48 0zm4.378 67.701L48 67.705l-4.379-.004c-3.803 0-18.863-.291-18.863-18.445 0-4.177 1.432-7.233 3.775-9.778-.374-.923-.393-6.165 1.602-11.183 0 0 4.576.502 11.5 5.253 1.451-.401 3.908-.601 6.365-.601 2.455 0 4.912.199 6.365.601 6.923-4.751 11.498-5.253 11.498-5.253 1.995 5.018 1.977 10.26 1.603 11.183 2.344 2.545 3.776 5.602 3.776 9.778 0 18.154-15.061 18.445-18.864 18.445z" fill="#030104"></path></symbol><symbol viewBox="0 0 482.8 482.8" id="icon-link-ico"><path d="M255.2 209.3c-5.3 5.3-5.3 13.8 0 19.1 21.9 21.9 21.9 57.5 0 79.4l-115 115c-21.9 21.9-57.5 21.9-79.4 0l-17.3-17.3c-21.9-21.9-21.9-57.5 0-79.4l115-115c5.3-5.3 5.3-13.8 0-19.1s-13.8-5.3-19.1 0l-115 115C8.7 322.7 0 343.6 0 365.8c0 22.2 8.6 43.1 24.4 58.8l17.3 17.3c16.2 16.2 37.5 24.3 58.8 24.3s42.6-8.1 58.8-24.3l115-115c32.4-32.4 32.4-85.2 0-117.6-5.2-5.3-13.8-5.3-19.1 0z"></path><path d="M458.5 58.2l-17.3-17.3c-32.4-32.4-85.2-32.4-117.6 0l-115 115c-32.4 32.4-32.4 85.2 0 117.6 5.3 5.3 13.8 5.3 19.1 0s5.3-13.8 0-19.1c-21.9-21.9-21.9-57.5 0-79.4l115-115c21.9-21.9 57.5-21.9 79.4 0l17.3 17.3c21.9 21.9 21.9 57.5 0 79.4l-115 115c-5.3 5.3-5.3 13.8 0 19.1 2.6 2.6 6.1 4 9.5 4s6.9-1.3 9.5-4l115-115c15.7-15.7 24.4-36.6 24.4-58.8 0-22.2-8.6-43.1-24.3-58.8z"></path></symbol><symbol viewBox="0 0 97.713 97.713" id="icon-location-ico"><path d="M48.855 0C29.021 0 12.883 16.138 12.883 35.974c0 5.174 1.059 10.114 3.146 14.684 8.994 19.681 26.238 40.46 31.31 46.359a2.003 2.003 0 0 0 3.034 0c5.07-5.898 22.314-26.676 31.311-46.359 2.088-4.57 3.146-9.51 3.146-14.684C84.828 16.138 68.69 0 48.855 0zm0 54.659c-10.303 0-18.686-8.383-18.686-18.686 0-10.304 8.383-18.687 18.686-18.687s18.686 8.383 18.686 18.687c.001 10.303-8.382 18.686-18.686 18.686z"></path></symbol><symbol viewBox="0 0 14 16" id="icon-star-ico"><path fill-rule="evenodd" d="M14 6l-4.9-.64L7 1 4.9 5.36 0 6l3.6 3.26L2.67 14 7 11.67 11.33 14l-.93-4.74z"></path></symbol></svg>